# xmcd CD database file
#
# Track frame offsets:
#	150
#	6062
#	18240
#	24923
#	40485
#	50680
#	62727
#	78469
#	84387
#	102545
#	116952
#	133971
#	151171
#	163707
#	180871
#	190445
#	205858
#	217928
#	230164
#	243840
#	255904
#	269038
#	281884
#	299986
#	312092
#
# Disc length: 4316 seconds
#
# Revision: 0
# Processed by: cddbd v1.4b41PL1 Copyright (c) Steve Scherf et al.
# Submitted via: Feurio! 1.60.2ß - http://www.feurio.com
#
DISCID=6e10da19
DTITLE=Various Artist - Cooltimes Vol. 6
DYEAR=1900
DGENRE=
TTITLE0=Intro - Intro
TTITLE1=R. Kelly - Fiesta
TTITLE2=Make it hot 2 - Partybreak
TTITLE3=Guru feat. craig david - No more
TTITLE4=Public announcement - Mamacita
TTITLE5=Talent - Breakin' up
TTITLE6=Donell Jones - Take it there
TTITLE7=Vip party - Partybreak
TTITLE8=De la soul feat. chaka khan - All good ?
TTITLE9=3 LW feat. nas - I can't take it
TTITLE10=Jennifer lopez - Love don't cost a thing
TTITLE11=Chante Moore - Straight up (Rmx)
TTITLE12=Jay Z - I just wanna love u
TTITLE13=LL cool j feat. kelly price - You and me
TTITLE14=Robin S. feat. mary mary - Dance
TTITLE15=Destiny's child - Independent woman part. 1 (rmx)
TTITLE16=Boyz II men - Good guy
TTITLE17=Lucy perl - Don't mess with my man
TTITLE18=Craig david - Time to party
TTITLE19=Usher - Pop ya colla
TTITLE20=Jagged edge feat. run - Let's get married (rmx)
TTITLE21=Mya - Free
TTITLE22=Underdog project - Vibin'
TTITLE23=Kandi - Don't think i'm not (rmx)
TTITLE24=Chuck smooth - Who let the dogs out?
EXTD=
EXTT0=
EXTT1=
EXTT2=
EXTT3=
EXTT4=
EXTT5=
EXTT6=
EXTT7=
EXTT8=
EXTT9=
EXTT10=
EXTT11=
EXTT12=
EXTT13=
EXTT14=
EXTT15=
EXTT16=
EXTT17=
EXTT18=
EXTT19=
EXTT20=
EXTT21=
EXTT22=
EXTT23=
EXTT24=
PLAYORDER=
